<mxfile host="65bd71144e">
    <diagram id="NhanKaVMnwMO4gsUTpDe" name="Page-1">
        <mxGraphModel dx="986" dy="611" grid="1" gridSize="10" guides="1" tooltips="1" connect="1" arrows="1" fold="1" page="1" pageScale="1" pageWidth="850" pageHeight="1100" math="0" shadow="0">
            <root>
                <mxCell id="0"/>
                <mxCell id="1" parent="0"/>
                <mxCell id="2" value="" style="whiteSpace=wrap;html=1;aspect=fixed;" parent="1" vertex="1">
                    <mxGeometry width="1700" height="1700" as="geometry"/>
                </mxCell>
                <mxCell id="4" value="" style="rounded=0;whiteSpace=wrap;html=1;" parent="1" vertex="1">
                    <mxGeometry x="300" y="70" width="1390" height="740" as="geometry"/>
                </mxCell>
                <mxCell id="25" value="Protected Routes" style="swimlane;whiteSpace=wrap;html=1;" parent="1" vertex="1">
                    <mxGeometry x="970" y="90" width="700" height="370" as="geometry">
                        <mxRectangle x="870" y="90" width="120" height="30" as="alternateBounds"/>
                    </mxGeometry>
                </mxCell>
                <mxCell id="65" value="Tasks" style="rounded=0;whiteSpace=wrap;html=1;" parent="25" vertex="1">
                    <mxGeometry x="60" y="155" width="120" height="60" as="geometry"/>
                </mxCell>
                <mxCell id="71" value="" style="rounded=0;whiteSpace=wrap;html=1;" parent="25" vertex="1">
                    <mxGeometry x="280" y="70" width="120" height="60" as="geometry"/>
                </mxCell>
                <mxCell id="67" value="" style="endArrow=classic;html=1;exitX=1;exitY=0.5;exitDx=0;exitDy=0;entryX=0;entryY=0.5;entryDx=0;entryDy=0;" parent="25" source="65" target="71" edge="1">
                    <mxGeometry relative="1" as="geometry">
                        <mxPoint x="200" y="230" as="sourcePoint"/>
                        <mxPoint x="360" y="230" as="targetPoint"/>
                    </mxGeometry>
                </mxCell>
                <mxCell id="69" value="1" style="edgeLabel;resizable=0;html=1;align=left;verticalAlign=bottom;" parent="67" connectable="0" vertex="1">
                    <mxGeometry x="-1" relative="1" as="geometry"/>
                </mxCell>
                <mxCell id="70" value="N" style="edgeLabel;resizable=0;html=1;align=right;verticalAlign=bottom;" parent="67" connectable="0" vertex="1">
                    <mxGeometry x="1" relative="1" as="geometry"/>
                </mxCell>
                <mxCell id="47" value="" style="edgeStyle=none;html=1;" parent="1" source="24" target="46" edge="1">
                    <mxGeometry relative="1" as="geometry"/>
                </mxCell>
                <mxCell id="49" value="true" style="edgeStyle=none;html=1;entryX=0;entryY=0.5;entryDx=0;entryDy=0;" parent="1" source="46" target="25" edge="1">
                    <mxGeometry relative="1" as="geometry">
                        <mxPoint x="970" y="275" as="targetPoint"/>
                    </mxGeometry>
                </mxCell>
                <mxCell id="52" value="false" style="edgeStyle=none;html=1;entryX=0.25;entryY=0;entryDx=0;entryDy=0;" parent="1" source="46" target="51" edge="1">
                    <mxGeometry relative="1" as="geometry"/>
                </mxCell>
                <mxCell id="46" value="IsAuth" style="rhombus;whiteSpace=wrap;html=1;fontStyle=1;startSize=23;" parent="1" vertex="1">
                    <mxGeometry x="840" y="235" width="80" height="80" as="geometry"/>
                </mxCell>
                <mxCell id="51" value="" style="whiteSpace=wrap;html=1;fontStyle=1;startSize=23;" parent="1" vertex="1">
                    <mxGeometry x="690" y="520" width="750" height="260" as="geometry"/>
                </mxCell>
                <mxCell id="56" value="" style="edgeStyle=none;html=1;" parent="1" source="53" target="55" edge="1">
                    <mxGeometry relative="1" as="geometry"/>
                </mxCell>
                <mxCell id="53" value="Wallet Login" style="rounded=1;whiteSpace=wrap;html=1;" parent="1" vertex="1">
                    <mxGeometry x="820" y="570" width="120" height="60" as="geometry"/>
                </mxCell>
                <mxCell id="54" value="" style="endArrow=classic;html=1;exitX=0.25;exitY=0;exitDx=0;exitDy=0;entryX=0.5;entryY=0;entryDx=0;entryDy=0;" parent="1" source="51" target="53" edge="1">
                    <mxGeometry width="50" height="50" relative="1" as="geometry">
                        <mxPoint x="770" y="620" as="sourcePoint"/>
                        <mxPoint x="820" y="570" as="targetPoint"/>
                    </mxGeometry>
                </mxCell>
                <mxCell id="60" value="" style="edgeStyle=none;html=1;entryX=0.5;entryY=1;entryDx=0;entryDy=0;" parent="1" source="55" target="59" edge="1">
                    <mxGeometry relative="1" as="geometry">
                        <Array as="points">
                            <mxPoint x="1320" y="740"/>
                        </Array>
                    </mxGeometry>
                </mxCell>
                <mxCell id="55" value="Phantom / snowflake" style="whiteSpace=wrap;html=1;rounded=1;" parent="1" vertex="1">
                    <mxGeometry x="820" y="710" width="120" height="60" as="geometry"/>
                </mxCell>
                <mxCell id="59" value="successful&lt;br&gt;Authentication" style="rhombus;whiteSpace=wrap;html=1;rounded=1;" parent="1" vertex="1">
                    <mxGeometry x="1280" y="560" width="80" height="80" as="geometry"/>
                </mxCell>
                <mxCell id="61" value="true" style="endArrow=classic;html=1;exitX=0.5;exitY=0;exitDx=0;exitDy=0;entryX=0.5;entryY=1;entryDx=0;entryDy=0;" parent="1" source="59" target="25" edge="1">
                    <mxGeometry width="50" height="50" relative="1" as="geometry">
                        <mxPoint x="1010" y="610" as="sourcePoint"/>
                        <mxPoint x="1060" y="560" as="targetPoint"/>
                    </mxGeometry>
                </mxCell>
                <mxCell id="62" value="false" style="endArrow=classic;html=1;exitX=0;exitY=0.5;exitDx=0;exitDy=0;entryX=1;entryY=0.5;entryDx=0;entryDy=0;" parent="1" source="59" target="53" edge="1">
                    <mxGeometry width="50" height="50" relative="1" as="geometry">
                        <mxPoint x="1010" y="610" as="sourcePoint"/>
                        <mxPoint x="1060" y="560" as="targetPoint"/>
                    </mxGeometry>
                </mxCell>
                <mxCell id="64" value="" style="group" parent="1" vertex="1" connectable="0">
                    <mxGeometry x="200" y="90" width="590" height="370" as="geometry"/>
                </mxCell>
                <mxCell id="3" value="user" style="shape=umlActor;verticalLabelPosition=bottom;verticalAlign=top;html=1;outlineConnect=0;" parent="64" vertex="1">
                    <mxGeometry y="200" width="30" height="60" as="geometry"/>
                </mxCell>
                <mxCell id="24" value="Public Routes" style="swimlane;whiteSpace=wrap;html=1;" parent="64" vertex="1">
                    <mxGeometry x="130" width="460" height="370" as="geometry">
                        <mxRectangle width="120" height="30" as="alternateBounds"/>
                    </mxGeometry>
                </mxCell>
                <mxCell id="36" value="" style="rounded=1;whiteSpace=wrap;html=1;movable=1;resizable=1;rotatable=1;deletable=1;editable=1;connectable=1;" parent="64" vertex="1">
                    <mxGeometry x="160" y="40" width="420" height="280" as="geometry"/>
                </mxCell>
                <mxCell id="37" value="Hero Page" style="rounded=1;whiteSpace=wrap;html=1;" parent="64" vertex="1">
                    <mxGeometry x="190" y="200" width="120" height="60" as="geometry"/>
                </mxCell>
                <mxCell id="38" value="About" style="whiteSpace=wrap;html=1;rounded=1;" parent="64" vertex="1">
                    <mxGeometry x="190" y="85" width="120" height="60" as="geometry"/>
                </mxCell>
                <mxCell id="39" value="Contact" style="whiteSpace=wrap;html=1;rounded=1;" parent="64" vertex="1">
                    <mxGeometry x="400" y="85" width="120" height="60" as="geometry"/>
                </mxCell>
                <mxCell id="40" value="" style="endArrow=classic;startArrow=classic;html=1;exitX=1;exitY=0.5;exitDx=0;exitDy=0;entryX=0;entryY=0.5;entryDx=0;entryDy=0;" parent="64" source="38" target="39" edge="1">
                    <mxGeometry width="50" height="50" relative="1" as="geometry">
                        <mxPoint x="400" y="345" as="sourcePoint"/>
                        <mxPoint x="450" y="295" as="targetPoint"/>
                    </mxGeometry>
                </mxCell>
                <mxCell id="41" value="" style="endArrow=classic;startArrow=classic;html=1;exitX=0.5;exitY=0;exitDx=0;exitDy=0;" parent="64" source="37" edge="1">
                    <mxGeometry width="50" height="50" relative="1" as="geometry">
                        <mxPoint x="400" y="345" as="sourcePoint"/>
                        <mxPoint x="250" y="145" as="targetPoint"/>
                    </mxGeometry>
                </mxCell>
                <mxCell id="42" value="" style="endArrow=classic;startArrow=classic;html=1;exitX=1;exitY=0.5;exitDx=0;exitDy=0;entryX=0.5;entryY=1;entryDx=0;entryDy=0;" parent="64" source="37" target="39" edge="1">
                    <mxGeometry width="50" height="50" relative="1" as="geometry">
                        <mxPoint x="400" y="345" as="sourcePoint"/>
                        <mxPoint x="450" y="295" as="targetPoint"/>
                        <Array as="points">
                            <mxPoint x="460" y="230"/>
                        </Array>
                    </mxGeometry>
                </mxCell>
                <mxCell id="13" value="" style="edgeStyle=none;html=1;entryX=0;entryY=0.5;entryDx=0;entryDy=0;exitX=0.5;exitY=0.5;exitDx=0;exitDy=0;exitPerimeter=0;" parent="64" source="3" target="37" edge="1">
                    <mxGeometry relative="1" as="geometry">
                        <mxPoint x="20" y="260" as="sourcePoint"/>
                        <mxPoint x="180" y="230" as="targetPoint"/>
                    </mxGeometry>
                </mxCell>
            </root>
        </mxGraphModel>
    </diagram>
</mxfile>